<svg width="32" height="32" viewBox="0 0 32 32" fill="none" xmlns="http://www.w3.org/2000/svg">
<path d="M5.75738 7.09072C5.20023 7.64787 4.75826 8.30931 4.45673 9.03727C4.1552 9.76523 4 10.5455 4 11.3334C4 12.1213 4.1552 12.9015 4.45673 13.6295C4.75826 14.3575 5.20023 15.0189 5.75738 15.5761L16.0001 25.8187L26.2427 15.5761C27.3679 14.4508 28.0001 12.9247 28.0001 11.3334C28.0001 9.74208 27.3679 8.21595 26.2427 7.09072C25.1175 5.9655 23.5914 5.33335 22.0001 5.33335C20.4087 5.33335 18.8826 5.9655 17.7574 7.09072L16.0001 8.84805L14.2427 7.09072C13.6856 6.53356 13.0241 6.0916 12.2962 5.79007C11.5682 5.48853 10.788 5.33334 10.0001 5.33334C9.21211 5.33334 8.43189 5.48853 7.70393 5.79007C6.97598 6.0916 6.31454 6.53356 5.75738 7.09072V7.09072Z" fill="white" stroke="white" stroke-width="2" stroke-linecap="round" stroke-linejoin="round"/>
</svg>
